<svg width="23" height="23" viewBox="0 0 23 23" fill="none" xmlns="http://www.w3.org/2000/svg">
<path d="M7.66758 11.5C7.66758 9.38299 9.38336 7.66636 11.5005 7.66636C13.6175 7.66636 15.3343 9.38299 15.3343 11.5C15.3343 13.617 13.6175 15.3336 11.5005 15.3336C9.38336 15.3336 7.66758 13.617 7.66758 11.5ZM5.59511 11.5C5.59511 14.7614 8.23893 17.4052 11.5005 17.4052C14.762 17.4052 17.4057 14.7614 17.4057 11.5C17.4057 8.2386 14.762 5.59489 11.5005 5.59489C8.23893 5.59489 5.59511 8.2386 5.59511 11.5ZM16.2595 5.36075C16.2594 5.63368 16.3402 5.90053 16.4918 6.12752C16.6433 6.35453 16.8588 6.53149 17.111 6.63604C17.3631 6.74059 17.6405 6.76803 17.9082 6.7149C18.1759 6.66175 18.4219 6.53042 18.615 6.3375C18.8082 6.14457 18.9396 5.89873 18.9929 5.63106C19.0463 5.3634 19.0192 5.08591 18.9147 4.83371C18.8105 4.58151 18.6337 4.36591 18.4067 4.21418C18.1799 4.06246 17.9131 3.98141 17.6402 3.9813H17.6396C17.2737 3.98147 16.9229 4.12684 16.6642 4.38549C16.4053 4.64413 16.2598 4.99489 16.2595 5.36075ZM6.85427 20.8607C5.73302 20.8096 5.12359 20.6229 4.71859 20.4651C4.18166 20.2561 3.79856 20.0071 3.39576 19.6049C2.99297 19.2027 2.74364 18.82 2.53553 18.283C2.37765 17.8782 2.19088 17.2687 2.13991 16.1475C2.08416 14.9353 2.07303 14.5711 2.07303 11.5001C2.07303 8.42904 2.08508 8.06592 2.13991 6.85271C2.19098 5.73151 2.37912 5.12311 2.53553 4.71712C2.74456 4.1802 2.99352 3.79712 3.39576 3.39434C3.798 2.99156 4.18074 2.74224 4.71859 2.53414C5.12341 2.37627 5.73302 2.18951 6.85427 2.13854C8.06651 2.08279 8.43066 2.07166 11.5005 2.07166C14.5702 2.07166 14.9348 2.08371 16.148 2.13854C17.2692 2.1896 17.8777 2.37774 18.2837 2.53414C18.8206 2.74224 19.2038 2.99212 19.6064 3.39434C20.0093 3.79656 20.2577 4.1802 20.4667 4.71712C20.6246 5.12192 20.8114 5.73151 20.8623 6.85271C20.9181 8.06592 20.9293 8.42904 20.9293 11.5001C20.9293 14.5711 20.9181 14.9342 20.8623 16.1475C20.8112 17.2687 20.6235 17.8781 20.4667 18.283C20.2577 18.82 20.0088 19.203 19.6064 19.6049C19.2042 20.0068 18.8206 20.2561 18.2837 20.4651C17.8789 20.623 17.2692 20.8098 16.148 20.8607C14.9357 20.9165 14.5716 20.9275 11.5005 20.9275C8.42928 20.9275 8.06614 20.9165 6.85427 20.8607ZM6.75905 0.069644C5.53476 0.125396 4.69817 0.319516 3.96757 0.603796C3.21093 0.897368 2.5704 1.29122 1.93033 1.93025C1.29026 2.56928 0.897406 3.2108 0.60382 3.96741C0.319529 4.69844 0.125401 5.53454 0.0696467 6.75878C0.0129725 7.98496 0 8.37697 0 11.5C0 14.6231 0.0129725 15.015 0.0696467 16.2412C0.125401 17.4656 0.319529 18.3016 0.60382 19.0327C0.897406 19.7887 1.29035 20.4311 1.93033 21.0697C2.57031 21.7085 3.21093 22.1018 3.96757 22.3962C4.69955 22.6805 5.53476 22.8746 6.75905 22.9304C7.98592 22.986 8.3773 23 11.5005 23C14.6235 23 15.0156 22.987 16.2419 22.9304C17.4663 22.8746 18.3023 22.6805 19.0333 22.3962C19.7895 22.1018 20.4305 21.7088 21.0705 21.0697C21.7106 20.4307 22.1027 19.7887 22.3971 19.0327C22.6814 18.3016 22.8764 17.4654 22.9313 16.2412C22.987 15.0141 23 14.6231 23 11.5C23 8.37697 22.987 7.98496 22.9313 6.75878C22.8755 5.53444 22.6814 4.69798 22.3971 3.96741C22.1027 3.21126 21.7097 2.5703 21.0705 1.93025C20.4316 1.29021 19.7895 0.897368 19.0342 0.603796C18.3023 0.319516 17.4661 0.124476 16.2428 0.069644C15.0165 0.013892 14.6245 0 11.5014 0C8.37822 0 7.98592 0.012972 6.75905 0.069644Z" fill="white"/>
</svg>
